<svg width="72.27" height="27.578" viewBox="0 0 19.121 7.297" xml:space="preserve" xmlns="http://www.w3.org/2000/svg">
  <path style="display:inline;fill:#000;fill-opacity:1;fill-rule:nonzero;stroke:none" d="M68.477 14.16c-2.278 1.195-4.442 5.117-2.805 5.117.18 0 .328-.332.328-.746 0-.914.875-2.297 2.047-3.226 1.285-1.012 1.617-.88 1.387.597-.2 1.246-.149 1.313 1.218 2.078 1.172.665 1.485 1.047 1.766 2.196.2.781.527 1.594.758 1.808 1.238 1.23-.313 2.278-3.23 2.18-3.368-.117-8.762 3.04-13.88 8.11-3.515 3.488-4.238 5.351-2.605 6.73 1.367 1.164 1.238 1.547-.48 1.547-3.2 0-3.266-3.84-.196-12.281.543-1.547.922-2.875.84-2.961-.84-.848-3.797 8.71-3.797 12.265 0 2.942.762 3.692 3.567 3.574 2.671-.117 2.886-.55 1.054-2.226l-.81-.74a1.03 1.03 79.544 0 1-.226-1.223l.31-.615c2.394-4.703 12.062-11.399 16.484-11.414 2.129 0 2.492-.102 3.414-.934l.77-.688a.43.43 100.119 0 0 .094-.526l-.696-1.31c-.48-.898-.86-1.96-.86-2.378 0-.547-.394-.98-1.386-1.543-1.367-.75-1.402-.801-1.3-2.344.112-1.762-.134-1.914-1.766-1.047" transform="translate(-2.881 -3.61)scale(.26458)"/>
  <path style="fill:#000;fill-opacity:1;fill-rule:nonzero;stroke:none;stroke-width:.264583" d="M13.8 1.028c-1 .418-3.306.507-5.143.194-2.24-.387-3.249 0-4.58 1.74-1.178 1.55-1.951 1.686-2.353.418-.218-.694-.847-.439-.725.295.167.977 1.01 1.597 1.86 1.363.354-.092.219-.232-.161-.171-.768.123-1.475-.54-1.475-1.381 0-.453.13-.404.387.136.56 1.192 1.503 1.038 2.524-.404 1.223-1.724 2.27-2.159 4.352-1.825 2.41.392 5.357.216 5.698-.338.091-.146-.078-.158-.384-.027m1.916.722c0 .091.34.22.41.15.022-.028.018-.089-.012-.141-.07-.115-.398-.124-.398-.01z"/>
  <path style="fill:#000;fill-opacity:1;fill-rule:nonzero;stroke:none;stroke-width:.264583" d="M5.195 3.1c-.262.55-.319.602-1.367 1.248-.393.242-.571.594-.768 1.5-.257 1.174-.31 1.213-1.837 1.257-.717.018-1.223.07-1.223.12 0 .052.467.073 1.244.056C2.93 7.236 2.99 7.193 3.27 5.812c.175-.875.35-1.147.943-1.468.755-.404 1.37-1.161 1.375-1.69 0-.241-.144-.078-.393.445"/>
  <path style="fill:#000;fill-opacity:1;fill-rule:nonzero;stroke:none" d="M65.555 26.805c-1.75 1.777 1.863 7.73 6.218 10.238 2.23 1.262 3.07 2.078 3.317 3.223l.138.66a.36.36 39.074 0 0 .356.289h3.65c2.391 0 3.926-.133 3.926-.332 0-.2-1.351-.332-3.414-.332H76.68a.62.62 28.51 0 1-.518-.281l-.626-.965c-.445-.7-1.879-1.965-3.347-2.926-4.54-2.992-5.922-4.871-5.973-8.043-.035-1.664-.164-2.012-.66-1.531m-27.771 3.672c-.543.086-1.996.601-3.234 1.148-1.223.531-3.45 1.195-4.918 1.46-3.348.583-3.977 1.134-4.703 4.09-.313 1.216-.758 2.528-1.004 2.927-.25.382-.363.796-.266.914.363.347 9.012.23 9.012-.133 0-.2-1.469-.332-3.746-.332-4.488 0-4.227.199-3.434-2.742.844-3.141 1.188-3.457 4.406-4.024 1.47-.265 3.762-.965 5.114-1.562l1.734-.766a3.4 3.4 168.897 0 1 1.48-.29l5.583.157c3.496.117 6.351.067 6.351-.082 0-.48-10.215-1.129-12.375-.765" transform="translate(-2.881 -3.61)scale(.26458)"/>
  <path style="display:inline;fill:#000;fill-opacity:1;fill-rule:nonzero;stroke:none" d="M39.434 33.352c-2.426 2.343-2.043 4.406 1.09 6.02 1.37.694 1.09 1.179-.727 1.179-2.54 0-5.988-4.274-5.18-6.399.395-1.066-.097-1.562-.61-.617-.843 1.578-.429 2.809 1.716 5.285l1.835 2.131a.76.76 24.63 0 0 .575.264h1.863c1.203 0 2.277-.117 2.344-.25.344-.582-.496-1.762-1.668-2.375-2.656-1.363-2.723-3.324-.18-5.172 1.45-1.078 1.73-1.512.922-1.512-.262 0-1.152.649-1.98 1.446" transform="translate(-2.881 -3.61)scale(.26458)"/>
  <path style="fill:#000;fill-opacity:1;fill-rule:nonzero;stroke:none;stroke-width:.264583" d="M12.612 4.924c-.026.048.022.11.11.141 1.043.378 1.558.677 2.448 1.424.756.634.764.63-1.03.63-1.03 0-1.559.03-1.524.088.07.11 3.42.118 3.488.008.075-.123-1.087-1.175-1.798-1.618-.716-.454-1.611-.805-1.694-.673"/>
</svg>
